<?xml version="1.0" encoding="utf-8"?>
<!-- Generator: Adobe Illustrator 19.1.0, SVG Export Plug-In . SVG Version: 6.00 Build 0)  -->
<svg version="1.1" id="Layer_1" xmlns="http://www.w3.org/2000/svg" xmlns:xlink="http://www.w3.org/1999/xlink" x="0px" y="0px"
	 viewBox="-261 333 83.9 125" style="enable-background:new -261 333 83.9 125;" xml:space="preserve">
<style type="text/css">
	.st0{fill:#878787;}
	.st1{fill:#0087E0;}
	.st2{fill:#FF7E00;}
</style>
<g>
	<path class="st0" d="M-220.6,334.8l-0.8-1.8c0,0-3.4,1.1-3.7,4.6c0,0-0.5,2.7,1.7,4.1c2.2,1.4,3.9,3.1,2.4,4.9
		c-1.4,1.8-3.7,3.4-3.2,6c0,0,0.3,0.7,0.4,1l2.1-0.4c0,0-1.3-1.3-0.1-2.8c1.2-1.5,2.4-2.5,2.8-3.4c0.5-1,0.8-3.2-0.8-4.8
		c0,0-0.4-0.4-1.4-1c-1-0.7-1.9-1.4-2.1-2.6C-223.5,337.3-222.5,335.4-220.6,334.8z"/>
	<path class="st0" d="M-220.6,334.8l-0.8-1.8l-1,0.5c-0.5,0.3-1,0.7-1.4,1.1c-0.9,1.1-1.5,2.6-1.4,4c0.1,1.4,0.9,2.4,2,3.2
		c0.6,0.4,1.2,0.8,1.7,1.3c1.4,1.3,1.1,2.8,0,4.2c-0.9,1.1-2,2-2.5,3.4c-0.2,0.5-0.3,1.4-0.1,1.9c0,0,0.3,0.7,0.4,1l2.1-0.4
		c0,0-1.3-1.3-0.1-2.8c1.6-1.9,3.9-3.6,3.1-6.4c-0.3-1.2-1.1-1.9-2.1-2.6c-1-0.8-2.2-1.5-2.5-2.9
		C-223.5,337.3-222.5,335.4-220.6,334.8z"/>
	<path class="st0" d="M-216.4,334.8l-0.8-1.8l-1,0.5c-0.5,0.3-1,0.7-1.4,1.1c-0.9,1.1-1.5,2.6-1.4,4c0.1,1.4,0.9,2.4,2,3.2
		c0.6,0.4,1.2,0.8,1.7,1.3c1.4,1.3,1.1,2.8,0,4.2c-0.9,1.1-2,2-2.5,3.4c-0.2,0.5-0.3,1.4-0.1,1.9c0,0,0.3,0.7,0.4,1l2.1-0.4
		c0,0-1.3-1.3-0.1-2.8c1.6-1.9,3.8-3.6,3.1-6.4c-0.3-1.2-1.1-1.9-2.1-2.6c-1-0.8-2.2-1.5-2.5-2.9
		C-219.3,337.3-218.3,335.4-216.4,334.8z"/>
	<path class="st0" d="M-212.1,334.8l-0.7-1.8l-1,0.5c-0.5,0.3-1,0.7-1.4,1.1c-0.9,1.1-1.5,2.6-1.5,4c0.2,1.4,1,2.4,2,3.2
		c0.6,0.4,1.2,0.8,1.7,1.3c1.4,1.3,1.1,2.8,0,4.2c-0.9,1.1-2,2-2.5,3.4c-0.2,0.5-0.3,1.4-0.1,1.9c0,0,0.3,0.7,0.4,1l2.1-0.4
		c0,0-1.3-1.3-0.1-2.8c1.6-1.9,3.9-3.6,3.1-6.4c-0.3-1.2-1.1-1.9-2.1-2.6c-1-0.8-2.2-1.5-2.5-2.9
		C-214.9,337.3-213.9,335.4-212.1,334.8z"/>
	<path class="st1" d="M-212.4,356.2l2.7-1.3c0,0,1.5,5.3,9.9,11.6c8.4,6.3,20.4,8.7,21.5,8.9l-0.4,2.9c0,0-11.7-1.6-22.2-9
		C-200.9,369.3-208.4,364.7-212.4,356.2z"/>
	<path class="st1" d="M-225.8,356.2l-2.7-1.3c0,0-1.5,5.3-9.9,11.6c-8.4,6.3-20.4,8.7-21.5,8.9l0.5,2.9c0,0,11.7-1.6,22.2-9
		C-237.3,369.3-229.7,364.7-225.8,356.2z"/>
	<path class="st2" d="M-260.9,390.8v-3.1h17.3c0,0,1.3-5,1.6-6.3c0.3-1.3,0.7-2.3,1.8-2.2c1,0.1,1.4,1.6,1.4,2.2
		c0.1,0.6,1,7.3,1,7.3s0.1,0.1,0.5-2.1c0.4-2.2,1.8-2.1,1.8-2.1s1-0.1,1.7,1.8l0.5,1.1c0,0,0.6-1.3,0.7-1.7c0.1-0.4,0.6-1.1,1.1-1
		c0.4,0.1,0.8,0.9,1.1,1.5c0.3,0.6,0.5,1,0.5,1s0.5-3.4,0.6-4.6c0.1-1.2,0.9-7.5,0.9-7.5s0.3-1.9,1.6-2c0,0,1,0.1,1.4,2
		c0.4,1.9,1.7,11,1.7,11l1.1,8l2.2-8.8c0,0,0.4-2.5,1.8-2.5c0,0,0.7-0.2,1.8,2c1.1,2.2,1.8,3.6,1.8,3.6l1.2-3c0,0,0.4-1.1,1.1-1
		c0.8,0,1.3,0.8,1.7,1.2c0.4,0.5,2,2.8,2,2.8l1.7-2.6c0,0,0.5-0.6,1.2-0.6c0.7,0,1.7,1.4,1.7,1.4l1.3,1.5l1.4-0.9c0,0,1.1-0.7,2-0.6
		c0.8,0.1,0.9,0.1,3,1.5l1.5-0.6c0,0,0.8-0.4,1.8,0.1s1.6,0.6,1.6,0.6s0.3,0.1,0.6,0c0.3-0.1,1.4-0.7,2.2-0.7s0.9,0.2,2,0.2
		c1.1,0,10,0,10,0v3.2h-10.9c0,0-0.8-0.2-1.2-0.2c-0.4,0-1.5,0.7-2.2,0.7s-1,0-1.9-0.4c-0.9-0.4-1-0.7-1.7-0.4
		c-0.7,0.3-1.7,0.9-2.3,0.7c0,0-0.4-0.1-2.1-1.2c0,0-0.4-0.6-1-0.2c-0.6,0.4-2.2,1.5-2.2,1.5s-0.8,0.5-1.7-0.1l-1.5-1.5
		c0,0-0.2-0.4-0.5-0.1c-0.2,0.3-1.4,2.3-1.4,2.3s-0.7,0.8-1.4,0.8c-0.7-0.1-1.3-0.9-1.4-1l-1.5-2c0,0-0.2-0.4-0.3,0
		c-0.2,0.4-1.2,3.3-1.2,3.3l-0.5,1.1c0,0-0.4,0.5-0.8,0.5c-0.5,0-0.7-0.2-1-0.6c-0.2-0.4-2.3-4.6-2.3-4.6s-0.2-0.7-0.4,0
		c-0.2,0.7-3.1,13.2-3.1,13.2s-0.5,1.4-1.6,1.4c-1,0-1.4-1.2-1.4-1.2l-1.4-9.8l-0.8-5.8c0,0-0.1-0.7-0.2,0c-0.1,0.7-0.6,6.1-0.6,6.1
		s-0.1,2-1.4,2c-1.3,0-1.5-1.2-1.5-1.2l-1-2.7c0,0-0.2-0.5-0.4,0.1c-0.2,0.5-0.7,2.1-1.4,2c-0.7,0-1-0.8-1-0.8l-0.6-1.4
		c0,0-0.2-0.3-0.2,0c0,0.4-1.3,8-1.3,8s-0.4,1.6-1.6,1.5c-1.2,0-1.5-0.5-1.7-1.5c-0.1-1-1-8-1-8l-0.2-1.4c0,0-0.1-0.5-0.3,0
		c-0.2,0.6-0.2,1-0.6,1h-19L-260.9,390.8L-260.9,390.8"/>
	<path class="st1" d="M-229.1,411.9c3.6-2.9,12.7-3.7,17.2-0.7c2.1,1.5,3,3.7,3.3,6.4c-2.7,0.1-5.3,0.3-7.9,0.5
		c-0.4-1.8-1.2-3.2-3.2-3.4c-0.4-0.2-1.4-0.2-1.8,0c-1.2,0.2-2.2,0.8-2.1,2.1c0.1,1.4,1.9,1.8,3.5,2.1c6,1.4,11.8,2.5,12.6,8.9
		c0,0.5,0,0.9,0,1.4c-0.4,4.3-3.3,7.3-7.9,8.4c-4.6,1-11.1,0.5-14-2.1c-1.7-1.6-2.8-4.1-3-7c2.6-0.3,5.4-0.3,8-0.6
		c0.4,2.5,1.4,4.3,4,4.6c0.4,0.2,1.4,0.2,1.8,0c1.6-0.3,2.8-1.1,2.9-2.7c0-2.6-3.6-3.2-6-3.8c-3-0.7-5.3-1.6-6.9-2.8
		c-0.5-0.5-1-0.9-1.5-1.5c-1.9-2-1.6-7.1,0.3-8.8C-229.7,412.6-229.4,412.3-229.1,411.9z"/>
	<path class="st1" d="M-261,409.9c4.8,0,9.7,0,14.5,0c0.4,0,0.7,0,1.1,0c0.1,0.2,0.6,0,0.9,0.1c2.3,0.1,4.3,0.6,5.6,1.6
		c0.4,0.4,0.8,0.8,1.2,1.2c0.8,1.1,1.3,2.4,1.5,4.2c0,0.4,0,0.9,0,1.3c-0.4,4.1-2.8,6.3-6.6,7.1c5,2,6.1,8,8.8,12.4
		c-3.1,0-6.3,0-9.4,0c-1.1-1.6-2-3.5-3.1-5.6c-1.1-2.1-2-5.1-4.5-5.7c-0.3-0.2-1,0-1.4-0.1c-0.2,3.6,0,7.6-0.1,11.4
		c-2.8,0-5.7,0-8.5,0C-261,428.4-261,419.2-261,409.9z M-252.4,421.2c1.4-0.1,3,0.1,4.2-0.1c3.4,0.4,4.7-3.6,2.6-5
		c-1.4-0.9-4.5-0.4-6.7-0.6C-252.6,417.2-252.6,419.5-252.4,421.2z"/>
	<path class="st1" d="M-203.3,409.9c2.7,0,5.4,0,8,0c3.3,5.1,6.8,10.1,10.2,15.2c0,0.1,0.1,0.2,0.2,0.2c0-5.1,0-10.2,0-15.4
		c2.7,0,5.3,0,8,0c0,9.3,0,18.5,0,27.8c-2.6,0-5.2,0-7.9,0c-3.6-4.9-6.8-10.2-10.4-15.2c0,5.1,0,10.1,0,15.2c-2.7,0-5.4,0-8,0
		C-203.3,428.4-203.3,419.2-203.3,409.9z"/>
	<path class="st1" d="M-242.9,445.5c3.4-2.4,9.9-1.1,10.4,2.9c-1.1,0.3-2.4,0.5-3.6,0.8c-0.3-1-0.6-1.4-1.2-1.7
		c-4.1-1.9-5.2,6.3-2.2,7.3c2,0.7,3.5-0.8,3.6-2.5c1.2,0.4,2.4,0.7,3.5,1.1c0,0.7-0.3,1-0.5,1.6c-1,2-3,3.1-6.2,3h-0.1
		c-0.4-0.2-0.9-0.1-1.4-0.2h-0.1c-0.6-0.2-1.3-0.4-1.8-0.7c0-0.2-0.3-0.2-0.4-0.3c-0.5-0.5-0.9-1-1.4-1.6c0-0.1,0-0.2-0.1-0.2
		c-0.5-0.9-0.8-1.8-0.8-3.1c0-0.5,0-1.1,0-1.6c0.1-1.5,0.5-2.6,1.1-3.6C-243.7,446.3-243.3,445.9-242.9,445.5z"/>
	<path class="st1" d="M-200.8,445.5c3.4-2.4,9.9-1.1,10.3,2.9c-1.1,0.3-2.4,0.5-3.6,0.8c-0.3-1-0.6-1.4-1.2-1.7
		c-4.1-1.9-5.2,6.3-2.2,7.3c2,0.7,3.5-0.8,3.6-2.5c1.2,0.4,2.4,0.7,3.5,1.1c0,0.7-0.3,1-0.5,1.6c-1,2-3,3.1-6.2,3h-0.1
		c-0.4-0.2-0.9-0.1-1.4-0.2h-0.1c-0.6-0.2-1.3-0.4-1.8-0.7c0-0.2-0.2-0.2-0.4-0.3c-0.5-0.5-0.9-1-1.4-1.6c0-0.1,0-0.2-0.1-0.2
		c-0.4-0.9-0.8-1.8-0.8-3.1c0-0.5,0-1.1,0-1.6c0.1-1.5,0.5-2.6,1.1-3.6C-201.6,446.3-201.2,445.9-200.8,445.5z"/>
	<path class="st1" d="M-256,444.5c0.3,2-0.5,7.2,0.1,9c0.2,0.8,0.9,1.3,1.6,1.3c0.2,0.2,1,0.2,1.2,0c0.9-0.1,1.5-0.7,1.6-1.7
		c0.2-2.7,0-5.8,0.1-8.7c1.4,0,2.7,0,4.1,0c-0.2,3.5,0.5,7.9-0.6,10.6c-1.4,4-10.5,4-11.7,0c-0.2-0.6-0.3-1.3-0.5-2
		c0-2.9,0-5.7,0-8.6C-258.7,444.5-257.4,444.5-256,444.5z"/>
	<path class="st1" d="M-230.3,455.2c0-3.6,0-7.1,0-10.7c2.3,0,4.7,0,7,0c3.3-0.3,5.4,1.7,4.9,4.6c-0.2,1.5-1.5,2.6-3.1,2.8
		c1.4,0.7,2.2,2,2.9,3.3c0.3,0.7,0.6,1.4,1,2v0.1c0,0.2,0.4,0.5,0.2,0.6c-0.1,0-0.2,0-0.4,0c-1.3,0-2.6,0-4,0c-0.1,0-0.1,0-0.2,0
		c-0.5-1-1-2-1.6-2.9c-0.7-1.1-0.8-2.7-2.7-2.5c-0.2,1.6,0,3.6-0.1,5.4c-1.2,0-2.5,0-3.7,0c-0.1,0-0.2,0-0.3,0h-0.1
		C-230.3,456.9-230.3,456.1-230.3,455.2z M-226.2,449.9c1.4,0,3.4,0.2,3.7-1c0.2-0.7-0.2-1.5-1.1-1.6c-0.7-0.2-1.8,0-2.6-0.1
		C-226.3,447.9-226.3,449.2-226.2,449.9z"/>
	<path class="st1" d="M-209.6,444.5c1.3,0,2.6,0,4,0c0,4.4,0,8.9,0,13.3c-1.3,0-2.6,0-4,0C-209.6,453.4-209.6,448.9-209.6,444.5z"/>
	<path class="st1" d="M-188.2,444.5c3.6,0,7.3,0,10.9,0c0,1,0,1.9,0,2.9c-2.2,0.1-4.7-0.1-6.8,0.1c0,0.7,0,1.3,0,2
		c2.1,0,4.2,0,6.3,0c0,0.9,0,1.8,0,2.7c-2.1,0.1-4.4-0.1-6.3,0.1c0,0.8,0,1.7,0,2.5c2.3,0,4.7,0,7,0c0,1,0,2,0,3.1h-0.1
		c-3.7,0-7.3,0-11,0C-188.2,453.4-188.2,448.9-188.2,444.5z"/>
	<path class="st1" d="M-216.9,451.4c1.8,0,3.5,0,5.3,0c0,1,0,2,0,3c-1.8,0-3.5,0-5.3,0C-216.9,453.4-216.9,452.4-216.9,451.4z"/>
</g>
</svg>
